# xmcd CD database file
#
# Track frame offsets:
#	150
#	24367
#	42630
#	62310
#	98207
#	126712
#	145022
#	171752
#	200672
#	225365
#	245523
#	266562
#
# Disc length: 3869 seconds
#
# Revision: 0
# Processed by: cddbd v1.5.2PL0 Copyright (c) Steve Scherf et al.
# Submitted via: CDex 1.51
#
DISCID=a60f1b0c
DTITLE=David Newman - Introducing
DYEAR=2008
DGENRE=Jazz
TTITLE0=Fathead (with Ray Charles)
TTITLE1=Esther's Melody
TTITLE2=Congo Chant
TTITLE3=Night Of Nisan
TTITLE4=The Clincher
TTITLE5=Yesterday
TTITLE6=The Thirteenth Floor
TTITLE7=Chained No More
TTITLE8=Missy
TTITLE9=Shiloh
TTITLE10=Captain Buckles
TTITLE11=Pharao's Gold
EXTD=YEAR: 2008
EXTT0=
EXTT1=
EXTT2=
EXTT3=
EXTT4=
EXTT5=
EXTT6=
EXTT7=
EXTT8=
EXTT9=
EXTT10=
EXTT11=
PLAYORDER=
